# xmcd
#
# Track frame offsets:
#	150
#	17402
#	33979
#	47198
#	64364
#	80797
#	97710
#	114616
#	132858
#	151814
#	170674
#	184443
#	205507
#	220570
#	233655
#
# Disc length: 3383 seconds
#
# Revision: 1
# Processed by: cddbd v1.5.2PL0 Copyright (c) Steve Scherf et al.
# Submitted via: audiograbber 1.83.01
#
DISCID=c20d350f
DTITLE=JonesTM - HC200805
DYEAR=2008
DGENRE=Country
TTITLE0=Blake Shelton - Home
TTITLE1=Trent Willmon - Broken In
TTITLE2=Taylor Swift - Picture To Burn [Radio Edit]
TTITLE3=Jeremy McComb - This Town Needs A Bar
TTITLE4=LeAnn Rimes - Good Friend And A Glass Of Wine
TTITLE5=Mica Roberts Feat. Toby Keith - Things A Mama Don't Know
TTITLE6=Ledisi - In The Morning [Radio Edit]
TTITLE7=Charlie Wilson Feat. T-Pain - Supa Sexxy [Album Version]
TTITLE8=Marcus Miller Feat. Corinne Bailey Rae, David Sanborn and Gregoire Maret 
TTITLE8=/ Free [Radio Edit 1 w/o Intro]
TTITLE9=Marcus Miller Feat. Corinne Bailey Rae, David Sanborn and Gregoire Maret 
TTITLE9=/ Free [Radio Edit 2 w. Intro]
TTITLE10=Michael McDonald - Your Love Keeps Lifting Me) Higher And Higher
TTITLE11=Danny Lerman - No Ordinary Love [Album Version]
TTITLE12=Jackiem Joyner - Just Groove [Radio Edit]
TTITLE13=Carol Duboc - My Valentine [Radio Edit]
TTITLE14=Leee John - Sensuality [Album Version]
EXTD=
EXTT0=
EXTT1=
EXTT2=
EXTT3=
EXTT4=
EXTT5=
EXTT6=
EXTT7=
EXTT8=
EXTT9=
EXTT10=
EXTT11=
EXTT12=
EXTT13=
EXTT14=
PLAYORDER=
